HIERARCHY
ROOT Hips
{
	OFFSET -3.958830 18.904000 13.208200
	CHANNELS 6 Xposition Yposition Zposition Zrotation Yrotation Xrotation 
	JOINT LHipJoint
	{
		OFFSET 0.000000 0.000000 0.000000
		CHANNELS 3 Zrotation Yrotation Xrotation
		JOINT LeftUpLeg
		{
			OFFSET 1.800000 -1.400000 0.085000
			CHANNELS 3 Zrotation Yrotation Xrotation
			JOINT LeftLeg
			{
				OFFSET 2.215000 -6.000000 0.000000
				CHANNELS 3 Zrotation Yrotation Xrotation
				JOINT LeftFoot
				{
					OFFSET 2.500000 -6.900000 0.000000
					CHANNELS 3 Zrotation Yrotation Xrotation
					JOINT LeftToeBase
					{
						OFFSET 0.200000 -0.500000 1.950000
						CHANNELS 3 Zrotation Yrotation Xrotation
						End Site
						{
							OFFSET 0.000000 0.000000 0.000000
						}
					}
				}
			}
		}
	}
	JOINT RHipJoint
	{
		OFFSET 0.000000 0.000000 0.000000
		CHANNELS 3 Zrotation Yrotation Xrotation
		JOINT RightUpLeg
		{
			OFFSET -1.800000 -1.400000 0.085000
			CHANNELS 3 Zrotation Yrotation Xrotation
			JOINT RightLeg
			{
				OFFSET -2.215000 -6.000000 0.000000
				CHANNELS 3 Zrotation Yrotation Xrotation
				JOINT RightFoot
				{
					OFFSET -2.500000 -6.900000 0.000000
					CHANNELS 3 Zrotation Yrotation Xrotation
					JOINT RightToeBase
					{
						OFFSET -0.200000 -0.500000 1.950000
						CHANNELS 3 Zrotation Yrotation Xrotation
						End Site
						{
							OFFSET 0.000000 0.000000 0.000000
						}
					}
				}
			}
		}
	}
	JOINT LowerBack
	{
		OFFSET 0.000000 0.000000 0.000000
		CHANNELS 3 Zrotation Yrotation Xrotation
		JOINT Spine
		{
			OFFSET -0.087000 1.940000 -0.288900
			CHANNELS 3 Zrotation Yrotation Xrotation
			JOINT Spine1
			{
				OFFSET 0.000000 1.950000 0.060000
				CHANNELS 3 Zrotation Yrotation Xrotation
				JOINT Neck
				{
					OFFSET 0.000000 0.000000 0.000000
					CHANNELS 3 Zrotation Yrotation Xrotation
					JOINT Neck1
					{
						OFFSET 0.000000 1.600000 0.340000
						CHANNELS 3 Zrotation Yrotation Xrotation
						JOINT Head
						{
							OFFSET 0.000000 1.667000 -0.240000
							CHANNELS 3 Zrotation Yrotation Xrotation
							End Site
							{
								OFFSET 0.000000 0.000000 0.000000
							}
						}
					}
				}
				JOINT LeftShoulder
				{
					OFFSET 0.000000 0.000000 0.000000
					CHANNELS 3 Zrotation Yrotation Xrotation
					JOINT LeftArm
					{
						OFFSET 2.700000 1.550000 -0.730000
						CHANNELS 3 Zrotation Yrotation Xrotation
						JOINT LeftForeArm
						{
							OFFSET 5.450000 0.000000 0.000000
							CHANNELS 3 Zrotation Yrotation Xrotation
							JOINT LeftHand
							{
								OFFSET 3.450000 0.000000 0.000000
								CHANNELS 3 Zrotation Yrotation Xrotation
								JOINT LeftHandIndex1
								{
									OFFSET 0.750000 0.000000 0.000000
									CHANNELS 3 Zrotation Yrotation Xrotation
									End Site
									{
										OFFSET 0.000000 0.000000 0.000000
									}
								}
							}
						}
					}
				}
				JOINT RightShoulder
				{
					OFFSET 0.000000 0.000000 0.000000
					CHANNELS 3 Zrotation Yrotation Xrotation
					JOINT RightArm
					{
						OFFSET -2.700000 1.550000 -0.730000
						CHANNELS 3 Zrotation Yrotation Xrotation
						JOINT RightForeArm
						{
							OFFSET -5.450000 0.000000 0.000000
							CHANNELS 3 Zrotation Yrotation Xrotation
							JOINT RightHand
							{
								OFFSET -3.450000 0.000000 0.000000
								CHANNELS 3 Zrotation Yrotation Xrotation
								JOINT RightHandIndex1
								{
									OFFSET -0.750000 0.000000 0.000000
									CHANNELS 3 Zrotation Yrotation Xrotation
									End Site
									{
										OFFSET 0.000000 0.000000 0.000000
									}
								}
							}
						}
					}
				}
			}
		}
	}
}
MOTION
Frames: 4
Frame Time: 0.016667
-1.787430 19.067390 2.547160 -16.974404 0.913206 -13.787295 -14.844370 11.029063 1.431979 16.324165 -2.290221 -20.908967 -4.258107 8.916207 31.710466 -0.978082 6.944545 2.035876 -0.144960 -0.331160 -0.450100 19.252568 -7.360847 7.307929 -27.195028 10.461456 -67.908209 42.656494 -50.230098 68.463349 -3.514113 -16.786316 -0.681454 0.037890 0.939420 0.328550 -5.387354 -1.096492 -9.020377 35.482098 -17.162208 29.877248 -16.796157 -6.202037 14.939088 5.497314 -7.701231 -11.065033 -18.623453 9.534955 40.158057 -1.211340 -1.299100 -14.962250 -22.042311 -28.269465 5.812452 -24.682426 -23.204820 -11.268440 51.851264 -67.107020 -37.178931 -4.049935 1.780783 0.755760 0.356890 -0.164320 0.161970 11.090406 29.251741 6.555654 31.102012 21.326014 -19.854885 -66.693662 80.234453 -54.454947 0.645312 1.821437 -0.601690 0.800970 0.754690 -0.010620 
-1.842810 19.207560 2.448740 -14.472419 0.647375 -14.291757 -14.858139 11.093362 1.961127 15.244826 -3.005789 -23.808587 -5.668870 10.074178 35.279590 -0.852793 7.556334 1.762070 -0.089030 -0.257200 -0.388770 19.129381 -7.664793 6.711047 -22.313163 12.849188 -60.547503 34.560492 -46.645767 73.942901 -3.602338 -17.143809 -0.796770 0.049890 0.840650 0.315830 -5.211641 -1.183834 -9.074809 31.155984 -15.615973 33.581632 -15.572694 -5.563376 14.762184 5.069062 -7.296342 -11.343755 -18.228344 9.233612 42.039776 -0.137850 -1.555010 -18.162090 -21.804742 -29.033330 5.681842 -23.836689 -22.534300 -12.450001 50.434079 -68.407120 -37.221238 -3.949371 1.777382 0.825320 0.264680 -0.077620 0.145530 11.748281 30.273761 7.057661 30.521650 21.082136 -20.693761 -70.356297 78.972068 -56.482375 0.656560 2.075360 -0.569550 0.799110 0.720800 -0.023730 
-1.910390 19.298550 2.352760 -11.262015 -0.045343 -14.289491 -14.945594 11.024472 2.728906 14.570686 -4.259871 -27.940805 -8.135347 12.151569 40.041142 -0.647416 8.659607 1.325449 -0.061370 -0.232860 -0.342600 18.981301 -7.807904 6.086998 -18.277316 13.896549 -53.742675 27.325876 -41.764824 77.308182 -3.520034 -16.905350 -0.791030 0.045140 0.769030 0.317660 -4.898509 -1.438816 -9.244549 25.232546 -13.117149 37.148356 -13.585496 -4.339731 14.532801 4.471595 -6.769904 -11.926726 -17.498772 9.010764 43.830067 0.518320 -1.352160 -20.300720 -20.568705 -29.715287 5.784705 -23.849664 -21.705541 -13.575692 51.757071 -69.033442 -38.920497 -3.882917 1.718683 0.892340 0.202360 -0.016880 0.122030 11.752191 31.580288 7.635682 30.015145 20.885090 -21.676445 -70.895040 77.880504 -56.272128 0.691200 2.022738 -0.555930 0.785970 0.711110 -0.048460 
-1.989470 19.345500 2.268700 -7.838297 -1.782697 -13.697879 -15.093582 10.812358 3.696314 15.286535 -5.555767 -33.010340 -11.924260 15.443518 45.051156 -0.335847 10.197412 0.764777 -0.070710 -0.241420 -0.342280 18.826938 -7.871141 5.388923 -14.294207 14.423276 -47.592355 20.101111 -35.243785 78.789048 -3.256060 -16.040020 -0.640663 0.029630 0.737300 0.322370 -4.503129 -1.674099 -9.471654 18.886493 -9.818595 40.044805 -11.355523 -2.332586 13.838729 3.624623 -6.404337 -12.290550 -16.912600 8.745976 44.885549 1.242530 -1.143260 -21.720850 -19.441702 -29.606612 5.544120 -24.095521 -20.959898 -14.214804 52.522340 -69.577246 -40.051968 -3.830803 1.659565 0.937460 0.171380 0.013500 0.097130 12.283879 32.492305 8.185099 29.677034 20.617839 -22.209210 -72.373576 77.594478 -57.245550 0.705431 2.133883 -0.554440 0.776200 0.729230 -0.062660 
